<svg width="60" height="60" viewBox="0 0 60 60" fill="none" xmlns="http://www.w3.org/2000/svg">
<path d="M53.9732 46.7918C53.9732 36.7783 53.9732 26.7648 53.9732 16.7513C53.9732 15.6687 53.9657 15.6612 52.882 15.6612C50.8529 15.6612 48.8239 15.6612 46.9203 15.6612C46.9784 14.394 47.0345 13.1658 47.0944 11.863C47.0663 11.8667 47.2216 11.8257 47.3751 11.8257C49.3836 11.8219 51.392 11.8014 53.3986 11.8275C56.0508 11.863 57.8122 13.651 57.8122 16.2977C57.8178 27.5916 57.8141 38.8874 57.8122 50.1814C57.8122 50.3848 57.7936 50.5882 57.7804 50.8253H2.8642V50.0413C2.8642 38.8631 2.8642 27.6849 2.8642 16.5067C2.8642 13.5391 4.57875 11.8257 7.55676 11.8238C13.0429 11.8182 18.531 11.8238 24.0172 11.8238C24.2418 11.8238 24.4683 11.8238 24.8652 11.8238C23.918 13.1359 23.0832 14.3286 22.1959 15.4821C22.0725 15.6425 21.6924 15.6556 21.4305 15.6556C16.8315 15.665 12.2306 15.6612 7.63163 15.6632C6.77435 15.6632 6.70135 15.7303 6.70135 16.5664C6.70135 26.72 6.70135 36.8735 6.70135 47.027C6.70135 47.2099 6.72007 47.391 6.7313 47.6131H53.9732V46.7918Z" fill="#FFA229"/>
<path d="M31.7234 4.56339C35.7795 11.9433 39.7739 19.2132 43.815 26.567C41.539 26.7014 39.3752 26.8358 37.2114 26.9571C34.0893 27.1345 30.9672 27.2987 27.8469 27.4834C27.4894 27.504 27.2778 27.4629 27.0795 27.0953C25.4323 24.0454 23.7533 21.0144 22.0593 17.9346C25.2526 13.5168 28.4552 9.08395 31.7234 4.56152V4.56339Z" fill="#FFA229"/>
<path d="M18.1154 31.8303C17.7654 32.0188 17.4061 32.2297 17.0317 32.4108C16.2979 32.7654 15.6036 32.6105 15.2143 31.9199C14.0612 29.8743 12.9307 27.8155 11.8225 25.7438C11.4464 25.0402 11.6859 24.3682 12.3747 23.9464C12.7303 23.7299 13.1047 23.5414 13.4623 23.3435C13.2863 22.2759 13.3631 22.1247 14.3045 21.6096C16.021 20.6708 17.7337 19.7282 19.4519 18.7912C20.4159 18.2649 20.8071 18.3676 21.3219 19.3008C22.8136 22.009 24.3036 24.721 25.7861 27.4348C26.2503 28.284 26.1173 28.7338 25.2675 29.2005C23.5324 30.1543 21.7935 31.0968 20.0546 32.045C19.0926 32.5695 18.9503 32.5545 18.1136 31.8303H18.1154Z" fill="#FFA229"/>
<path d="M49.0055 26.0332C49.0073 27.1008 48.4627 27.7466 47.5474 28.0042C46.8211 28.2095 46.1024 27.9426 45.6887 27.2446C45.1664 26.3636 44.6948 25.4546 44.2006 24.5569C40.2549 17.3766 36.3074 10.1982 32.3635 3.01608C31.6821 1.77488 31.9891 0.783797 33.1964 0.266789C33.9901 -0.0729059 34.7986 0.160401 35.2853 0.875249C35.4033 1.04883 35.5005 1.23548 35.6017 1.41839C39.918 9.27058 44.2362 17.1228 48.5469 24.9787C48.7659 25.3781 48.9137 25.8167 49.0073 26.0332H49.0055Z" fill="#FFA229"/>
<path d="M20.5657 33.2602C21.9845 32.4837 23.3302 31.7465 24.6592 31.0186C24.7285 31.0541 24.794 31.0634 24.8052 31.0951C25.9339 34.2475 27.933 36.8382 30.1323 39.3C31.3751 40.6906 31.334 40.907 29.7074 41.7955C28.8689 42.2528 28.0303 42.712 27.1898 43.1655C26.6264 43.4697 26.1417 43.3932 25.8216 42.8146C24.0789 39.6603 22.3438 36.4985 20.5637 33.2602H20.5657Z" fill="#FFA229"/>
<path d="M44.9831 15.7905C43.8637 13.7486 42.7743 11.7627 41.6719 9.75257C43.1131 9.53038 44.6405 10.3628 45.3612 11.7048C46.0687 13.0226 45.9283 14.7211 44.9812 15.7905H44.9831Z" fill="#FFA229"/>
<path d="M59.8843 52.1692H1.09162C0.608696 54.254 1.62507 56.7103 3.50809 58.0541C3.67654 58.1755 3.9517 58.2838 3.98352 58.4368C4.14636 59.217 4.71913 59.146 5.28815 59.146C14.2034 59.146 22.355 59.1442 30.4879 59.1442C38.6208 59.1442 46.7744 59.1442 55.6877 59.146C56.2586 59.146 56.8296 59.217 56.9924 58.4368C57.0242 58.2818 57.2993 58.1755 57.4678 58.0541C59.349 56.7103 60.3672 54.254 59.8843 52.1692Z" fill="#FFA229"/>
</svg>
