<svg width="61" height="60" viewBox="0 0 61 60" fill="none" xmlns="http://www.w3.org/2000/svg">
<g clip-path="url(#clip0_1_22041)">
<path d="M9.38393 27.5549V50.7835H51.6598V27.5549C51.0004 27.5549 50.3462 27.5619 49.6939 27.5549C48.4104 27.5373 47.4671 26.6292 47.4742 25.4269C47.4812 24.2227 48.4192 23.3358 49.7168 23.3252C50.951 23.3164 52.1852 23.3218 53.4211 23.3235C55.1313 23.3235 55.9388 24.1221 55.9388 25.8165C55.9388 33.8615 55.9388 41.9047 55.9388 49.9496V50.8329C56.5982 50.8329 57.2276 50.8294 57.8571 50.8329C59.3452 50.8417 60.2232 51.7691 60.1633 53.2642C60.0345 56.4624 57.367 59.137 54.1581 59.2869C54.0259 59.2939 53.8936 59.2975 53.7614 59.2975C38.2866 59.2975 22.81 59.3027 7.33518 59.2939C4.32907 59.2939 1.85367 57.3687 1.11316 54.5213C1.05145 54.2868 1.0109 54.0487 0.970348 53.8107C0.651225 51.8995 1.54336 50.8364 3.46162 50.8347C3.98879 50.8347 4.51596 50.8347 5.13658 50.8347V50.0395C5.13658 41.9734 5.13658 33.9073 5.13658 25.8412C5.13658 24.1169 5.92116 23.327 7.62785 23.3252C8.86201 23.3252 10.0962 23.32 11.3322 23.3252C12.6633 23.3341 13.6171 24.2421 13.6013 25.4692C13.5854 26.6681 12.6422 27.5408 11.3392 27.5549C10.7045 27.5619 10.0715 27.5549 9.38564 27.5549H9.38393Z" fill="#FFA229"/>
<path d="M20.22 3.76588C20.5867 3.94748 21.1844 4.21194 21.7468 4.53458C22.0765 4.72323 22.3463 4.77083 22.6319 4.49932C22.6478 4.48345 22.6654 4.46935 22.6848 4.46053C23.792 4.01799 24.3827 3.36037 24.2699 2.00985C24.1747 0.855024 25.2025 0.0545845 26.4032 0.0492953C29.159 0.0369537 31.9129 0.0369537 34.6687 0.0492953C35.9082 0.0545845 36.8849 0.914972 36.8232 2.14913C36.7685 3.24048 37.1071 3.84522 38.0944 4.3283C38.7344 4.64213 39.1399 4.6721 39.7359 4.30009C41.2328 3.36742 42.3241 3.67772 43.1968 5.19926C44.4786 7.43309 45.7586 9.66871 47.0333 11.906C47.8197 13.2866 47.5553 14.4643 46.1694 15.1854C45.4184 15.5768 45.2085 16.0263 45.1891 16.8603C45.1662 17.8371 45.406 18.4012 46.3122 18.8579C47.5341 19.4732 47.7915 20.6914 47.1074 21.9009C45.7728 24.2564 44.4293 26.6066 43.0752 28.9533C42.3664 30.1822 41.1745 30.5454 39.9897 29.789C39.2122 29.2918 38.6462 29.2654 37.8229 29.7714C37.0824 30.2263 36.802 30.6546 36.8373 31.5115C36.9008 33.0736 36.0086 33.9023 34.4307 33.904C31.8301 33.9076 29.2295 33.9076 26.6271 33.904C25.0615 33.9023 24.1641 33.0613 24.2346 31.4974C24.2751 30.63 24.06 30.0693 23.212 29.8031C23.0692 29.759 22.9299 29.6674 22.8171 29.5651C22.3904 29.1807 21.9778 29.179 21.5371 29.5439C21.3872 29.6691 21.2003 29.7502 21.0257 29.8454C19.8797 30.4607 18.7125 30.1751 18.0602 29.0555C16.6532 26.6401 15.2621 24.2141 13.8922 21.7775C13.2804 20.6897 13.5889 19.4432 14.7068 18.8878C15.6218 18.433 15.9233 17.8723 15.881 16.8515C15.8475 16.0211 15.6394 15.5627 14.8936 15.1766C13.5343 14.4731 13.2504 13.29 14.0085 11.9572C15.3256 9.64226 16.6585 7.33612 17.972 5.01943C18.4111 4.24543 19.0475 3.81877 20.2165 3.76588H20.22ZM40.3935 25.1203C41.0934 23.8968 41.7722 22.7067 42.4599 21.5043C42.3065 21.4037 42.2201 21.335 42.1231 21.2857C41.0688 20.7409 40.739 19.8911 40.8325 18.7151C40.9313 17.4738 40.8766 16.2168 40.8149 14.9703C40.7673 14.0129 41.0846 13.2989 41.8956 12.7982C42.0791 12.6853 42.2606 12.5689 42.4633 12.4437C41.7616 11.222 41.0864 10.0425 40.4041 8.85589C40.2736 8.90352 40.1837 8.91759 40.1131 8.96345C38.9901 9.70219 38.001 9.51004 36.9801 8.67782C36.289 8.11537 35.5008 7.59885 34.6705 7.29734C33.267 6.7878 32.4736 5.97149 32.6023 4.41998C32.6059 4.38825 32.5547 4.35122 32.5424 4.33359H28.4185C28.6582 5.9662 27.8243 6.77194 26.4332 7.285C25.6627 7.57063 24.8958 8.00078 24.2769 8.53678C23.1626 9.50471 22.0659 9.741 20.8071 8.89648C20.7789 8.87885 20.7242 8.89997 20.6361 8.90878C19.9749 10.0636 19.3014 11.2396 18.6156 12.4403C18.8589 12.5954 19.0599 12.7241 19.2608 12.8546C19.9925 13.3306 20.2852 14.0023 20.2641 14.8733C20.2323 16.2749 20.2323 17.6783 20.2641 19.08C20.2835 19.951 19.9891 20.6227 19.2573 21.097C19.0563 21.2274 18.8553 21.3562 18.6138 21.5113C19.3102 22.7243 19.9925 23.9126 20.6854 25.1203C20.9711 24.9705 21.1809 24.8559 21.396 24.7501C22.1805 24.364 22.9052 24.4751 23.6422 24.9317C24.7953 25.6475 25.9659 26.3369 27.1596 26.9822C27.9512 27.4089 28.4079 27.9994 28.4396 28.9022C28.4485 29.1384 28.4608 29.3747 28.4731 29.6268H32.627C32.627 29.3659 32.6235 29.149 32.627 28.9321C32.6482 27.9994 33.1225 27.4 33.9388 26.9646C35.1165 26.3351 36.2678 25.6563 37.3997 24.9476C38.1579 24.4715 38.9002 24.3605 39.7059 24.7642C39.9192 24.8717 40.1308 24.9829 40.3899 25.1186L40.3935 25.1203Z" fill="#FFA229"/>
<path d="M25.0086 42.3687C25.9818 43.3242 26.9145 44.1934 27.7925 45.1138C28.9633 46.3391 28.4008 48.275 26.7823 48.6576C26.0418 48.8321 25.3718 48.647 24.8323 48.1145C23.4041 46.7059 21.9796 45.2936 20.5778 43.8585C19.7263 42.9857 19.721 41.7604 20.569 40.8912C21.969 39.456 23.3883 38.0368 24.8235 36.6369C25.6874 35.7941 26.9709 35.8223 27.7943 36.6474C28.6177 37.469 28.6406 38.7455 27.7978 39.6182C26.9127 40.535 25.9853 41.4078 25.005 42.3704L25.0086 42.3687Z" fill="#FFA229"/>
<path d="M36.0423 42.3602C35.1184 41.4504 34.265 40.62 33.4259 39.7772C32.4632 38.8111 32.4015 37.5417 33.2619 36.6619C34.1399 35.7645 35.4322 35.8174 36.4267 36.8029C37.7402 38.1076 39.0519 39.4158 40.3548 40.7293C41.3827 41.766 41.3933 42.9578 40.3742 43.9874C39.0413 45.3362 37.7013 46.6762 36.3508 48.0073C35.4216 48.9241 34.1364 48.9505 33.2813 48.0972C32.4244 47.2421 32.4473 45.9551 33.3588 45.0294C34.221 44.1514 35.1025 43.2928 36.0423 42.3584V42.3602Z" fill="#FFA229"/>
<path d="M30.5113 10.6277C34.0075 10.6171 36.8725 13.4592 36.8849 16.9484C36.8955 20.4428 34.0533 23.3096 30.5642 23.3219C27.0732 23.3342 24.2011 20.4868 24.1888 17.0013C24.1782 13.5086 27.0239 10.64 30.5113 10.6295V10.6277ZM32.6516 16.9977C32.664 15.8482 31.7243 14.882 30.5765 14.8608C29.4287 14.8397 28.4502 15.7742 28.4219 16.9184C28.392 18.0926 29.3582 19.0852 30.5307 19.0888C31.6785 19.0922 32.6393 18.1455 32.6516 16.9977Z" fill="#FFA229"/>
</g>
<defs>
<clipPath id="clip0_1_22041">
<rect width="60" height="59.2593" fill="white" transform="translate(0.660004 0.0400391)"/>
</clipPath>
</defs>
</svg>
