<svg width="61" height="56" viewBox="0 0 61 56" fill="none" xmlns="http://www.w3.org/2000/svg">
<g clip-path="url(#clip0_1_22055)">
<path d="M31.8929 38.355C32.0246 38.5009 32.0921 38.5833 32.1664 38.6589C33.9541 40.4769 35.747 42.2898 37.5229 44.1199C37.7643 44.3688 37.9737 44.6796 38.1104 44.9989C38.3416 45.5448 38.1053 46.0238 37.5415 46.1818C37.2072 46.2762 36.8476 46.3208 36.4999 46.3225C30.7618 46.3311 25.0255 46.3311 19.2875 46.3208C18.9313 46.3208 18.5566 46.2538 18.224 46.1268C17.7192 45.9345 17.5403 45.4693 17.7783 44.9766C17.9404 44.6401 18.1649 44.3156 18.4231 44.0478C20.1569 42.2623 21.9058 40.4923 23.6547 38.7223C23.7459 38.6297 23.8827 38.585 23.9991 38.518C23.9653 38.4717 23.9316 38.4253 23.8978 38.379C23.8201 38.3721 23.7425 38.3619 23.6648 38.3619C16.6371 38.3601 9.60764 38.3567 2.57985 38.3584C1.30193 38.3584 0.483169 37.5429 0.481481 36.2347C0.478105 34.257 0.481481 32.2793 0.481481 30.3016C0.481481 21.067 0.481481 11.8342 0.481481 2.59967C0.478105 1.24171 1.27154 0.436539 2.60855 0.436539C9.35272 0.436539 16.0952 0.436539 22.8394 0.436539C29.8232 0.434823 36.8088 0.433105 43.7944 0.433105C46.9478 0.433105 50.1013 0.434823 53.2548 0.436539C54.6104 0.436539 55.4139 1.24858 55.4139 2.61684C55.4139 9.37918 55.4139 16.1399 55.4123 22.9022C55.4123 23.134 55.4359 23.3023 55.6587 23.4585C58.9759 25.8036 60.659 29.0294 60.4649 33.1446C60.291 36.8184 58.5775 39.6683 55.5929 41.7267C55.3937 41.8641 55.3497 41.9722 55.4156 42.1988C56.2631 45.1104 57.0936 48.0272 57.9496 50.9372C58.3142 52.175 58.2095 53.2806 57.2287 54.1974C55.7921 55.5382 53.3831 54.8909 52.8108 52.9905C52.2081 50.9836 51.6392 48.9664 51.0585 46.9526C50.7546 45.8985 50.4491 44.8444 50.1571 43.7868C50.0963 43.5671 50.0152 43.4761 49.7671 43.4709C45.9603 43.3885 42.9841 41.7319 40.8114 38.5592C40.7472 38.4648 40.6088 38.3653 40.5042 38.3635C37.6647 38.3533 34.8236 38.355 31.8912 38.355H31.8929ZM39.179 34.3738C38.7147 30.6844 39.6382 27.4877 42.189 24.88C44.7398 22.2722 47.8764 21.3142 51.4603 21.7709V4.49328H4.41488V34.3755H39.179V34.3738ZM57.0616 32.5557C57.0582 28.468 53.7106 24.9761 49.4446 25.1616C45.5889 25.3281 42.5435 28.5624 42.4928 32.4853C42.4388 36.5781 45.7088 39.9722 49.7603 39.9808C53.8034 39.9894 57.0987 36.6141 57.0616 32.5557Z" fill="#FFA229"/>
<path d="M21.0629 19.0718C21.0629 16.2546 21.0629 13.4374 21.0629 10.6201C21.0629 9.60211 21.7719 8.8364 22.7139 8.83814C23.6728 8.83814 24.4105 9.58151 24.4122 10.5893C24.419 16.2117 24.4207 21.8341 24.4122 27.4566C24.4105 28.7613 23.3976 29.5733 22.2429 29.2351C21.5306 29.0274 21.0663 28.3853 21.0646 27.5974C21.0629 24.7561 21.0646 21.9131 21.0646 19.0718H21.0629Z" fill="#FFA229"/>
<path d="M33.3541 20.811C33.3541 23.0566 33.3524 25.3038 33.3541 27.5494C33.3541 28.3099 33.0147 28.8644 32.3462 29.1683C31.7014 29.4619 31.0801 29.3452 30.5467 28.8696C30.1145 28.4833 29.9845 27.9683 29.9845 27.3983C29.9879 23.4171 29.9879 19.4376 29.9879 15.4564C29.9879 14.986 29.9828 14.5173 29.9879 14.047C29.998 13.0341 30.7189 12.2598 31.649 12.2564C32.6248 12.2529 33.3473 12.998 33.3507 14.035C33.3558 16.2942 33.3524 18.5518 33.3524 20.811H33.3541Z" fill="#FFA229"/>
<path d="M28.8755 22.531C28.8755 24.2357 28.884 25.9405 28.8722 27.6452C28.8671 28.4693 28.3066 29.1165 27.5031 29.2796C26.7552 29.4324 25.9955 29.0461 25.685 28.3114C25.582 28.0693 25.5279 27.7877 25.5279 27.5233C25.5178 24.1619 25.5195 20.8005 25.5246 17.4407C25.5246 16.4175 26.2353 15.6724 27.1891 15.6656C28.1564 15.6587 28.8806 16.4158 28.884 17.451C28.8874 19.1438 28.884 20.8365 28.884 22.5293H28.8755V22.531Z" fill="#FFA229"/>
<path d="M16.5709 22.4881C16.5709 20.8091 16.5658 19.1318 16.5726 17.4528C16.5777 16.421 17.2749 15.6794 18.2321 15.6674C19.1926 15.6554 19.9236 16.3747 19.9269 17.4082C19.9404 20.8194 19.9404 24.2306 19.9269 27.6419C19.9236 28.593 19.1386 29.3398 18.2321 29.3157C17.2968 29.2917 16.5878 28.5604 16.5845 27.5973C16.5793 25.8942 16.5845 24.1894 16.5845 22.4864C16.5811 22.4864 16.5777 22.4864 16.5726 22.4864L16.5709 22.4881Z" fill="#FFA229"/>
<path d="M12.1059 24.0022C12.1059 22.84 12.1025 21.6795 12.1059 20.5172C12.1092 19.5094 12.8369 18.7317 13.7653 18.73C14.7208 18.73 15.4602 19.506 15.462 20.5275C15.4653 22.8623 15.4653 25.1988 15.462 27.5336C15.4602 28.5551 14.7141 29.3276 13.7552 29.3156C12.8082 29.3036 12.1092 28.5465 12.1059 27.5233C12.1025 26.349 12.1059 25.1748 12.1059 24.0005V24.0022Z" fill="#FFA229"/>
<path d="M37.8748 25.9331C37.8748 26.5374 37.9018 27.1434 37.868 27.7477C37.819 28.6232 37.1252 29.2825 36.2693 29.3169C35.4286 29.3512 34.6065 28.7297 34.5643 27.8713C34.4984 26.5546 34.5069 25.2292 34.5693 23.9125C34.6065 23.1021 35.3627 22.5115 36.1832 22.4978C37.0104 22.4841 37.7582 23.0661 37.8444 23.9021C37.9135 24.5734 37.8579 25.2567 37.8579 25.9348C37.8629 25.9348 37.868 25.9348 37.8748 25.9348V25.9331Z" fill="#FFA229"/>
<path d="M55.3789 32.2344C55.3975 33.5427 55.1307 34.5177 54.6243 35.426C54.3592 35.9032 53.9963 36.0302 53.6063 35.8019C53.2518 35.5942 53.1657 35.1787 53.4273 34.7358C54.3491 33.1666 54.155 31.1357 53.0036 29.8018C52.6576 29.4018 52.2068 29.0859 51.7713 28.7803C51.3898 28.5125 51.2311 28.152 51.4269 27.788C51.6228 27.4241 52.0245 27.3142 52.4347 27.5494C54.3254 28.6344 55.2793 30.3031 55.3789 32.2344Z" fill="#FFA229"/>
</g>
<defs>
<clipPath id="clip0_1_22055">
<rect width="60" height="55.2632" fill="white" transform="translate(0.47998 0.0383301)"/>
</clipPath>
</defs>
</svg>
