<svg width="61" height="55" viewBox="0 0 61 55" fill="none" xmlns="http://www.w3.org/2000/svg">
<g clip-path="url(#clip0_1_22109)">
<path d="M6.96566 29.6968C12.7764 32.2727 18.4542 32.2134 23.8773 28.9602C29.2812 25.7183 32.0125 20.7872 32.4418 14.488C32.6368 14.488 32.8362 14.488 33.0356 14.488C36.4869 14.488 39.9382 14.488 43.3906 14.488C44.452 14.488 44.8238 14.9258 44.6233 15.9612C43.3354 22.6376 42.0453 29.3129 40.7562 35.9882C40.718 36.1897 40.6875 36.3923 40.6401 36.5916C40.4937 37.2196 40.1917 37.468 39.5337 37.4737C38.5399 37.4827 37.545 37.4759 36.5511 37.4759C28.0531 37.4759 19.5561 37.4759 11.0581 37.4759C9.96176 37.4759 9.82201 37.3785 9.4513 36.3834C8.6851 34.3224 7.91664 32.2627 7.14932 30.2029C7.09298 30.0529 7.04002 29.9018 6.96566 29.6968Z" fill="#FFA229"/>
<path d="M51.4989 12.1974C51.3523 13.0638 51.2138 13.8631 51.0808 14.6647C49.8234 22.2914 48.5648 29.9194 47.3096 37.5462C47.2194 38.0958 47.2047 38.6645 47.0583 39.1985C46.4284 41.4923 44.371 42.99 41.8976 42.99C31.9742 42.9912 22.052 42.99 12.1286 42.99C11.866 42.99 11.6023 42.9811 11.341 42.9957C10.3584 43.0516 9.74881 43.6763 9.7274 44.648C9.71952 45.0208 9.7398 45.3946 9.71952 45.7663C9.67895 46.513 9.16177 47.0089 8.46317 46.9944C7.7612 46.9798 7.28683 46.476 7.2857 45.7059C7.28458 45.0924 7.24401 44.4655 7.34655 43.8666C7.67331 41.9602 9.25529 40.6538 11.2609 40.5698C11.5415 40.5586 11.8232 40.5665 12.1048 40.5665C21.8965 40.5665 31.6881 40.5665 41.4796 40.5665C43.6014 40.5665 44.4994 39.7728 44.834 37.7063C45.607 32.9251 46.4093 28.1495 47.1991 23.3717C47.7703 19.9171 48.3789 16.4681 48.8949 13.0045C49.056 11.9276 49.2487 10.9201 49.9946 10.0805C50.0656 9.99988 50.034 9.77377 49.9788 9.64616C49.5676 8.7047 49.7704 8.03303 50.6594 7.52032C52.54 6.43558 54.4228 5.35531 56.3101 4.28064C57.3028 3.71532 58.0588 3.91906 58.6279 4.88738C59.0053 5.53106 59.384 6.17475 59.7502 6.82403C60.2459 7.70391 60.0307 8.49649 59.1474 9.00695C57.3321 10.0558 55.5011 11.0768 53.6995 12.147C52.9795 12.5746 52.2966 12.7425 51.4955 12.1951L51.4989 12.1974Z" fill="#FFA229"/>
<path d="M22.6164 49.8973C22.6254 52.6254 20.4463 54.8105 17.7127 54.815C14.9702 54.8195 12.7764 52.6556 12.7639 49.9342C12.7516 47.2196 14.9544 45.0098 17.6745 45.0076C20.4124 45.0053 22.6074 47.1759 22.6164 49.8962V49.8973ZM17.7139 52.3848C19.0671 52.3758 20.1724 51.2719 20.1781 49.9242C20.1837 48.5618 19.0468 47.4367 17.6721 47.4446C16.3257 47.4524 15.2034 48.573 15.2034 49.9085C15.2034 51.2776 16.3358 52.3937 17.7139 52.3848Z" fill="#FFA229"/>
<path d="M36.764 54.8174C34.0396 54.8129 31.8289 52.6043 31.8435 49.9008C31.8582 47.1917 34.0813 44.9976 36.799 45.0088C39.5213 45.02 41.7207 47.2231 41.7196 49.9344C41.7184 52.6378 39.5021 54.8219 36.764 54.8174ZM39.2655 49.9097C39.261 48.5407 38.1241 47.4291 36.7449 47.4459C35.3974 47.4626 34.292 48.581 34.2942 49.9266C34.2965 51.2688 35.4086 52.3793 36.7618 52.3871C38.1444 52.3961 39.27 51.2822 39.2655 49.9097Z" fill="#FFA229"/>
<path d="M0.95459 13.3623C1.32079 9.67265 2.8746 6.6188 5.58672 4.05078C6.63124 5.29897 7.9518 6.12176 9.32871 6.72962C9.06279 8.96068 8.80364 11.1357 8.53772 13.3623H0.95459Z" fill="#FFA229"/>
<path d="M9.27327 22.371C7.99214 23.271 6.74931 24.1442 5.43213 25.0699C2.86986 22.6766 1.34084 19.6172 0.94873 15.9297H8.53524C8.78651 18.1271 9.03552 20.3011 9.27327 22.3721V22.371Z" fill="#FFA229"/>
<path d="M19.9111 7.63023C20.1274 9.57136 20.337 11.4465 20.5522 13.373H11.0704C11.2891 11.4308 11.5054 9.50979 11.7285 7.52612C14.4823 8.12391 17.1178 8.16533 19.9111 7.63023Z" fill="#FFA229"/>
<path d="M19.866 21.6178C17.1471 21.0928 14.5038 21.1196 11.706 21.7443C11.4896 19.8043 11.2767 17.8968 11.0569 15.9343H20.4575C20.4654 17.8218 20.2085 19.6879 19.8649 21.6178H19.866Z" fill="#FFA229"/>
<path d="M25.9358 4.94336C28.0664 7.23152 29.334 10.0424 29.689 13.3482C29.5132 13.3694 29.3611 13.4041 29.2078 13.4041C27.2957 13.4075 25.3836 13.3975 23.4715 13.4143C23.0817 13.4176 22.9836 13.2933 22.9453 12.9116C22.7593 11.0611 22.5239 9.2163 22.3267 7.36697C22.3087 7.19793 22.3909 6.92255 22.516 6.84978C23.6236 6.2061 24.7515 5.596 25.9347 4.94336H25.9358Z" fill="#FFA229"/>
<path d="M25.9235 24.3489C24.6727 23.6089 23.5043 22.9171 22.373 22.2477C22.604 20.1834 22.8384 18.0777 23.0784 15.9307H29.6812C29.3523 19.2084 28.079 22.0115 25.9235 24.3489Z" fill="#FFA229"/>
<path d="M12.3979 24.1463C14.7169 23.6269 16.9478 23.6023 19.2521 24.0455C18.7349 25.6296 18.1884 27.1252 17.0481 28.3129C16.2053 29.1917 15.4312 29.1962 14.5873 28.3263C13.4661 27.1711 12.9264 25.709 12.3979 24.1463Z" fill="#FFA229"/>
<path d="M12.4541 5.12279C12.8811 3.82086 13.3634 2.63425 14.1533 1.59764C14.3662 1.31777 14.6164 1.05582 14.8891 0.835292C15.5133 0.33042 16.1353 0.292358 16.7167 0.836411C17.2136 1.30098 17.6721 1.84727 18.0023 2.43722C18.4868 3.30368 18.8406 4.2429 19.2789 5.21234C16.9206 5.6478 14.7167 5.62653 12.4541 5.12279Z" fill="#FFA229"/>
<path d="M7.59101 2.42369C8.89243 1.85278 10.1927 1.28186 11.4941 0.710938C11.5144 0.754596 11.5347 0.797135 11.5538 0.840793C11.0491 1.97592 10.5431 3.11104 9.97864 4.38162C9.16735 3.81069 8.36397 3.24425 7.56059 2.67893C7.57073 2.59385 7.58087 2.50877 7.59101 2.42482V2.42369Z" fill="#FFA229"/>
<path d="M7.57073 26.5736C8.34933 26.0194 9.12905 25.4653 9.93242 24.8933C10.471 26.1359 10.9623 27.2687 11.5324 28.5841C10.1465 27.9763 8.86651 27.4154 7.5865 26.8546C7.58087 26.7617 7.57637 26.6676 7.57073 26.5747V26.5736Z" fill="#FFA229"/>
<path d="M23.8851 3.2657C23.1528 3.69109 22.4193 4.11648 21.6812 4.54635C21.1944 3.39219 20.7415 2.31976 20.2885 1.24621C20.3077 1.20255 20.3269 1.15889 20.346 1.11523C21.5302 1.74549 22.7145 2.37574 23.8987 3.00711C23.8941 3.0933 23.8896 3.1795 23.8851 3.2657Z" fill="#FFA229"/>
<path d="M20.3764 28.0133C20.8114 26.9543 21.2463 25.8942 21.7218 24.7344C22.4541 25.1587 23.1855 25.5829 23.9167 26.0072C23.9257 26.08 23.9347 26.1527 23.9426 26.2255C22.7742 26.8614 21.6057 27.4972 20.4373 28.1319C20.4169 28.0916 20.3956 28.0525 20.3753 28.0122L20.3764 28.0133Z" fill="#FFA229"/>
</g>
<defs>
<clipPath id="clip0_1_22109">
<rect width="60" height="54.375" fill="white" transform="translate(0.47998 0.442383)"/>
</clipPath>
</defs>
</svg>
